<?xml version="1.0" encoding="UTF-8"?>
<svg id="Ds" xmlns="http://www.w3.org/2000/svg" version="1.1" viewBox="0 0 100.667 38.368">
  <!-- Generator: Adobe Illustrator 30.5.1, SVG Export Plug-In . SVG Version: 2.1.4 Build 3)  -->
  <path d="M41.28.103c-.155,1.034-.207,6.567-.207,8.429,0,7.136-.155,10.29,0,20.529,5.378-.155,10.859.052,16.03-.931-.481,2.956-.554,6.108-.207,9.825-2.068-.207-12.307-.155-24.717,0-.31-18.098,0-18.874,0-28.337,0-2.844.155-5.998-.517-8.119-.155-.414-.362-1.138-1.086-1.396l.052-.103s3.325.437,10.652.103Z" fill="#878787"/>
  <path d="M58.552,38.21c.465-8.273.517-11.114.569-16.957.051-7.136-.31-8.635-1.758-9.411l.052-.103c4.033.569,8.791.517,11.169.259-.517,4.292-.672,14.168-.568,26.113-2.513-.27-6.426-.407-9.463.1ZM63.775.414c3.051,0,5.275,2.017,5.275,4.757,0,2.792-2.224,4.809-5.275,4.809s-5.274-2.017-5.274-4.809c0-2.741,2.223-4.757,5.274-4.757Z" fill="#878787"/>
  <path d="M69.848,31.129c-.103-4.24,3.775-7.084,9.928-8.015,3.672-.569,9.721-.259,9.67-2.43-.052-1.655-2.999-2.224-5.326-2.224-6.412,0-10.393,2.327-11.273,6.05h-.103c.569-3.206.31-8.222.103-10.445,2.792-1.706,8.377-2.947,13.289-2.844,6.102.155,11.79,2.741,11.79,8.946,0,3.62-.414,5.895-.414,7.963,0,1.241.155,2.534,1.448,2.534,1.189,0,1.603-1.138,1.603-1.655h.104l-.31,8.325c-1.137.62-2.482,1.034-4.861,1.034-3.154,0-5.119-1.086-5.274-3.826-1.137,1.655-4.913,3.826-10.187,3.826-5.533,0-10.083-2.12-10.187-7.239ZM81.327,27.199c-2.068.517-2.896,1.5-2.896,2.585,0,1.965,1.707,2.741,3.826,2.741,3.103,0,6.877-2.327,6.981-5.74l.052-1.293c-1.345,1.034-5.585,1.138-7.963,1.706Z" fill="#878787"/>
  <g>
    <path d="M20.387,16.188c.138.02.273.055.404.102.247.087.493.177.738.27.175.067.349.136.52.212.231.102.444.236.638.399.242.203.464.426.684.651.179.183.355.37.53.557.113.121.221.246.313.383.039.057.074.117.103.179.074.159.051.309-.052.448-.145.195-.342.309-.58.35-.193.034-.383.011-.569-.042-.301-.084-.57-.233-.814-.427-.242-.192-.454-.413-.635-.664-.149-.207-.298-.414-.449-.62-.146-.199-.299-.392-.462-.577-.147-.166-.302-.325-.461-.48-.095-.093-.187-.189-.276-.29-.119-.135-.086-.255-.086-.255,0,0,.044-.258.452-.199Z" fill="#878787"/>
    <path d="M20.384,15.197c.157.067.315.127.475.182.267.09.532.187.792.297.289.123.573.261.851.41.288.154.574.312.861.468.348.189.712.327,1.093.413.384.087.767.109,1.149.037.236-.044.459-.124.651-.272.237-.182.386-.424.43-.733.031-.22-.033-.407-.209-.55-.069-.056-.143-.106-.219-.15-.183-.108-.377-.192-.573-.269-.304-.119-.608-.237-.914-.349-.376-.138-.753-.271-1.14-.371-.31-.08-.624-.116-.939-.105-.233.008-.467.025-.699.046-.325.03-.649.066-.973.102-.545.06-.757.241-.757.241-.107.09-.159.205-.128.354,0,0,.042.161.247.248Z" fill="#878787"/>
    <path d="M26.992,37.957s-.545.001-.545.002h-6.26c-.769-.342-1.538-.685-2.312-1.016-.32-.137-.654-.24-.981-.361-.088-.032-.174-.07-.257-.114-.133-.071-.126-.192-.023-.26.043-.028.082-.064.127-.09.292-.17.585-.34.878-.509.261-.151.542-.23.844-.254.426-.034.834.025,1.25.121,1.332.306,2.616.76,3.903,1.208.461.161.903.374,1.357.555,0,0,1.718.687,2.019.716Z" fill="#878787"/>
    <path d="M9.044,30.297c.382-1.073.873-2.291,1.268-3.359l.042-.105c.022-.068-.005-.138-.083-.161-.068-.02-.112.002-.161.083l-.027.045c-.272.461-.67,1.199-.921,1.672-.516.969-1.031,1.938-1.523,2.919-.517,1.032-1.017,2.074-1.504,3.121-.369.792-.708,1.598-1.057,2.399l-.424,1.001c-.006.015-.009.03-.009.047h2.019c.115-.429.223-.86.348-1.287.327-1.113.646-2.228.997-3.333.324-1.021.676-2.033,1.036-3.043Z" fill="#878787"/>
    <path d="M12.184,30.061c.019-.53.048-1.059.08-1.589.026-.436.061-.871.096-1.307l.072-.976c.014-.072-.033-.141-.104-.155-.072-.014-.141.032-.155.104l-.189.673c-.206.899-.278,1.191-.452,2.121-.206,1.099-.402,2.2-.58,3.303-.158.986-.3,1.975-.42,2.966l-.281,2.757h2.133l-.126-1.784c-.04-.67-.081-1.34-.097-2.01-.019-.811-.018-1.623-.014-2.434.002-.556.018-1.113.038-1.669Z" fill="#878787"/>
    <path d="M24.759,9.952c-.397.249-.763.542-1.134.827-.433.333-.87.66-1.334.95-.419.261-.855.488-1.297.706-.221.109-.439.223-.655.341l-.227.147c-.113.088-.185.224-.185.378,0,0,.035.513.97.327l.528-.117c.198-.039.397-.071.597-.093.209-.023.419-.033.628-.042.181-.007.362,0,.542-.005.268-.007.537-.011.804-.031.272-.02.538-.078.793-.176.293-.112.552-.277.775-.497.394-.389.621-.867.735-1.403.047-.221.074-.444.075-.67,0-.009.003-.018.004-.027-.006-.11-.012-.219-.018-.329-.01-.05-.018-.101-.029-.151-.028-.122-.068-.24-.148-.34-.079-.097-.18-.152-.303-.171-.021-.003-.041-.007-.062-.01-.065.003-.131.007-.196.011-.077.02-.154.037-.229.061-.227.075-.434.188-.636.315Z" fill="#878787"/>
    <path d="M11.008,28.488c.124-.6.099-.534.235-1.132l.202-.862c.016-.071-.029-.142-.1-.158-.072-.016-.142.029-.158.1l-.499,1.218c-.515,1.406-1.028,2.813-1.489,4.238-.337,1.044-.673,2.089-.981,3.142l-.787,2.897c-.002.009-.003.019-.003.029h2.055l.317-2.638c.065-.511.139-1.02.222-1.528.138-.841.279-1.683.435-2.521.174-.93.36-1.857.552-2.784Z" fill="#878787"/>
    <path d="M14.761,37.509c-.107-.5-.214-.999-.318-1.499-.132-.634-.25-1.271-.348-1.912-.075-.49-.149-.98-.218-1.471-.072-.518-.142-1.037-.205-1.557-.056-.458-.105-.916-.151-1.375-.045-.452-.086-.904-.125-1.357-.034-.398-.061-.796-.091-1.193-.028-.368-.056-.736-.085-1.104-.004-.047-.007-.095-.019-.139-.014-.05-.049-.084-.103-.091-.052-.007-.094.014-.121.057-.018.028-.034.062-.037.095-.027.333-.06.666-.076,1-.026.547-.048,1.094-.058,1.641-.013.705-.017,1.411-.016,2.116.002.835.009,1.669.023,2.504.011.601.032,1.201.057,1.801.018.442.049.884.078,1.326.036.532.076,1.065.114,1.597,0,.005.004.007.005.012h1.79c-.001-.006-.001-.01-.003-.018-.03-.144-.062-.289-.093-.432Z" fill="#878787"/>
    <path d="M15.866,10.334c.012.091.082.169.176.166.094-.003.168-.082.166-.176L15.672,0h-1.848l2.042,10.334Z" fill="#878787"/>
    <path d="M8.065,14.03c.083.037.229.047.32.048.52.002,1.039-.017,1.557-.069.385-.039.742-.147,1.064-.368.233-.16.487-.279.758-.36.292-.087.583-.089.878-.012.154.041.26.135.301.287.051.185.09.374.128.562.029.142.042.288.076.43.103.434.497.773.942.807.297.023.593.005.881-.083.273-.084.55-.097.833-.051.297.048.596.084.894.125,0,0,.2-.004.253-.005h.015c.236.014.474-.162.511-.393.033-.206.007-.405-.125-.578-.096-.125-.205-.234-.341-.317-.249-.151-.498-.302-.744-.458-.243-.155-.416-.361-.438-.663-.01-.13-.014-.26-.022-.389-.004-.073-.007-.146-.018-.217-.019-.129-.088-.222-.213-.265-.068-.024-.138-.05-.209-.058-.294-.032-.589-.061-.884-.084-.151-.012-.277-.068-.399-.158-.255-.188-.51-.378-.78-.544-.433-.267-.908-.382-1.418-.32-.181.022-.361.044-.542.068-.558.072-1.069.292-1.532.589-.651.417-1.183.967-1.552,1.658-.093.174-.171.356-.247.538-.053.127-.072.227.054.283Z" fill="#878787"/>
    <path d="M22.105,32.884c.003-.447-.01-.895.004-1.342.016-.521.007-1.039-.037-1.559-.034-.404-.043-.81-.066-1.216-.023-.41-.033-.822-.076-1.23-.063-.605-.148-1.208-.295-1.8-.08-.324-.14-.651-.092-.988.06-.424.017-.842-.095-1.252-.038-.139-.086-.281-.162-.402-.138-.22-.287-.435-.456-.631-.179-.208-.389-.39-.582-.585-.518-.524-1.086-.984-1.698-1.394-.211-.141-.408-.306-.594-.479-.355-.332-.558-.52-.859-.898-.151-.196-.253-.457-.276-.509-.154-.341-.203-.526-.347-.871-.09-.216-.153-.443-.238-.66-.074-.191-.209-.264-.409-.221-.111.024-.22.062-.323.111-.262.123-.491.296-.688.507-.239.256-.328.557-.253.907.056.264.2.478.366.679.18.219.325.457.432.719.095.232.13.465.063.714-.062.23-.196.383-.408.479-.183.083-.378.116-.575.129-.654.045-1.308.084-1.963.127,0,0-3.175-.16-4.741,2.943L.382,37.445c-.128.212-.192.31-.382.51l3.377.005c.348-.718,2.503-4.738,3.784-7.097.325-.599.636-1.205.961-1.804.466-.855.995-1.672,1.549-2.473.198-.286.408-.565.667-.803.336-.309.709-.543,1.17-.614.067-.01.134-.019.199-.034.277-.063.536-.166.771-.327.2-.138.421-.226.66-.267.265-.046.519-.025.748.133.197.135.4.264.588.411.369.288.736.58,1.002.975.132.195.319.325.537.411.178.069.362.083.55.096.321.021.643.049.963.088.24.029.462.113.662.258.16.116.272.263.3.456.038.267.062.536.086.805.01.114.001.229.005.343.008.245.133.418.336.546.141.089.281.179.415.278.335.248.514.583.516,1.001,0,.181-.018.364-.047.543-.076.462-.167.921-.246,1.383-.052.302-.093.605-.139.908,0,0-.233,1.453,1.252,1.726.387.071.842.043,1.017-.168,0,0,.413-.247.423-1.851Z" fill="#878787"/>
    <path d="M17.518,11.02c-.014.106.043.187.138.205.095.019.187-.043.205-.138L20.751,0h-1.822l-1.411,11.02Z" fill="#878787"/>
    <path d="M16.718,10.695c-.009.098.063.185.161.194.098.009.185-.063.194-.161L18.07,0h-1.576l.224,10.695Z" fill="#878787"/>
    <path d="M23.411,0h-1.957l-3.102,11.329c-.025.099-.002.19.085.23.087.04.19.002.23-.085L23.411,0Z" fill="#878787"/>
    <path d="M19.186,12.014c.447-.82,5.408-11.526,5.408-11.526.04-.09.084-.179.132-.265.055-.096.132-.149.252-.149.961,0,.433,2.456.433,2.456-.274.964-.717,1.85-1.212,2.714-.098.172-.197.343-.3.512-.035.057-.027.088.03.125.469.308.611.761.577,1.297-.016.255-.099.484-.206.713-.263.565-.602,1.084-.966,1.583-.671,1.018-3.67,2.895-3.67,2.895-.146.076-.286.128-.412.04,0,0-.216-.122-.067-.395Z" fill="#878787"/>
  </g>
</svg>