<?xml version="1.0" encoding="UTF-8"?>
<svg id="Ds" xmlns="http://www.w3.org/2000/svg" version="1.1" viewBox="0 0 199.751 28.567">
  <!-- Generator: Adobe Illustrator 30.5.1, SVG Export Plug-In . SVG Version: 2.1.4 Build 3)  -->
  <g>
    <g>
      <path d="M52.673,23.409h5.025v-2.888h-5.025v-1.393h5.721v-.554c0-1.362-1.105-2.467-2.467-2.467h-7.196v3.702c-.124-.324-.275-.63-.457-.917-.56-.893-1.347-1.583-2.361-2.065s-2.183-.72-3.505-.72h-5.858v8.637c0,1.795,1.456,3.251,3.251,3.251h2.609c1.326,0,2.494-.239,3.505-.72,1.014-.481,1.801-1.168,2.361-2.065.182-.291.333-.596.457-.917v3.702h7.783c1.159,0,2.098-.938,2.098-2.098v-.923h-5.942v-1.565ZM44.306,24.13c-.515.493-1.202.739-2.065.739h-1.68v-5.637h1.68c.86,0,1.547.245,2.065.739.515.493.772,1.187.772,2.08s-.257,1.586-.772,2.08Z" fill="#878787"/>
      <path d="M64.094,18.826v9.166h4.008v-11.885h-1.29c-1.498,0-2.718,1.217-2.718,2.718Z" fill="#878787"/>
      <path d="M79.548,21.778c.545-.272.954-.63,1.232-1.069.279-.442.415-.938.415-1.495,0-.938-.406-1.692-1.214-2.258s-2.007-.848-3.59-.848h-6.351v8.373c0,1.94,1.574,3.515,3.515,3.515h3.176c1.632,0,2.876-.285,3.736-.857s1.29-1.377,1.29-2.419c0-.702-.194-1.302-.578-1.801-.384-.503-.926-.881-1.629-1.141ZM73.978,18.908h1.868c.872,0,1.308.294,1.308.884,0,.587-.436.884-1.308.884h-1.868v-1.768ZM76.391,25.192h-2.413v-1.868h2.413c.884,0,1.326.312,1.326.932-.003.624-.445.935-1.326.935Z" fill="#878787"/>
      <path d="M87.104,23.409h5.025v-2.888h-5.025v-1.393h5.721v-3.021h-6.699c-1.638,0-2.964,1.326-2.964,2.964v8.921h9.884v-3.021h-5.942v-1.562h0Z" fill="#878787"/>
      <path d="M117.757,18.85c-.578-.944-1.374-1.683-2.395-2.216s-2.167-.799-3.448-.799-2.428.266-3.448.799c-1.02.533-1.816,1.271-2.395,2.216-.163.269-.306.548-.424.839-.1-.539-.294-1.032-.581-1.474-.442-.678-1.069-1.199-1.886-1.562-.814-.363-1.771-.545-2.87-.545h-5.721v8.721c0,1.747,1.417,3.163,3.163,3.163h.845v-2.988h1.087l2.022,2.988h4.28l-2.497-3.669c.724-.372,1.281-.878,1.665-1.511.027-.048.054-.094.082-.142.085.941.363,1.801.839,2.579.578.944,1.374,1.683,2.395,2.216s2.167.799,3.448.799,2.428-.266,3.448-.799c1.02-.533,1.816-1.271,2.395-2.216s.866-2.013.866-3.2c-.003-1.19-.291-2.255-.869-3.2ZM101.283,21.617c-.272.242-.678.366-1.223.366h-1.459v-2.785h1.459c.545,0,.951.121,1.223.366.272.242.409.587.409,1.026-.003.439-.136.781-.409,1.026ZM114.225,23.621c-.239.448-.557.793-.96,1.035-.403.242-.851.366-1.35.366s-.948-.121-1.35-.366c-.403-.242-.72-.587-.96-1.035-.239-.448-.357-.972-.357-1.571s.118-1.123.357-1.571c.239-.448.557-.793.96-1.035.403-.242.851-.366,1.35-.366.496,0,.948.121,1.35.366.403.242.72.587.96,1.035.239.448.357.972.357,1.571,0,.599-.118,1.123-.357,1.571Z" fill="#878787"/>
    </g>
    <g>
      <path d="M141.484,16.105l-3.769,6.333-3.872-6.333h0c-1.819,0-3.294,1.474-3.294,3.294v5.41l-3.805-8.703h-3.938l-3.566,8.155c-.769,1.762.521,3.736,2.443,3.736h0l.799-2.071h4.517l.799,2.071h6.402v-5.234l2.582,4.159h1.765l2.582-4.347.033,5.416h0c2.016,0,3.648-1.638,3.642-3.651l-.024-8.237h-3.297v.003ZM123.585,23.034l1.153-2.988,1.153,2.988h-2.307Z" fill="#878787"/>
      <path d="M150.687,23.409h5.025v-2.888h-5.025v-1.393h5.721v-3.024l-5.028.003,3.345-2.718h-3.651l-2.24,2.718-.1-.003h-1.986v8.164c0,2.055,1.668,3.723,3.723,3.723h6.16v-3.024h-5.942v-1.559h-.003Z" fill="#878787"/>
      <path d="M168.738,22.813c.384-.633.578-1.374.578-2.225,0-.905-.221-1.698-.663-2.376-.442-.678-1.069-1.199-1.886-1.562-.814-.363-1.771-.545-2.87-.545h-5.721v8.249c0,2.01,1.629,3.636,3.636,3.636h.369v-2.988h1.087l2.022,2.988h4.28l-2.497-3.669c.727-.369,1.281-.872,1.665-1.508ZM164.866,21.617c-.272.242-.678.366-1.223.366h-1.459v-2.785h1.459c.542,0,.951.121,1.223.366.272.242.409.587.409,1.026s-.136.781-.409,1.026Z" fill="#878787"/>
      <path d="M171.408,16.105h-.581v11.888h4.008v-8.458c0-1.895-1.535-3.43-3.427-3.43Z" fill="#878787"/>
      <path d="M199.521,24.196l-3.536-8.092h-3.941l-4.141,9.472-2.183-1.95c-.736.929-1.601,1.393-2.597,1.393-.839,0-1.511-.269-2.022-.805-.509-.539-.763-1.259-.763-2.164s.254-1.629.763-2.164c.509-.539,1.184-.805,2.022-.805.996,0,1.862.463,2.597,1.393l2.531-2.258c-.587-.769-1.335-1.359-2.24-1.765-.905-.409-1.934-.611-3.091-.611-1.256,0-2.388.263-3.396.79-1.008.527-1.798,1.262-2.37,2.207-.572.944-.857,2.019-.857,3.218s.285,2.273.857,3.218c.572.944,1.362,1.68,2.37,2.207s2.14.79,3.396.79c1.153,0,2.186-.203,3.091-.611.499-.224.954-.506,1.356-.842l-.518,1.181h4.075l.799-2.071h4.517l.799,2.071h0c1.953-.003,3.263-2.007,2.482-3.799ZM192.825,23.034l1.153-2.988,1.153,2.988h-2.307Z" fill="#878787"/>
    </g>
  </g>
  <g>
    <g>
      <path d="M48.078.887h4.041v8.855h5.413v.179c0,1.632-1.323,2.955-2.955,2.955h-6.499V.887h0Z" fill="#878787"/>
      <path d="M63.165,12.342c-1.026-.536-1.831-1.28-2.416-2.234-.581-.954-.875-2.028-.875-3.227s.291-2.273.875-3.227c.581-.954,1.386-1.698,2.416-2.234,1.026-.536,2.186-.805,3.475-.805s2.449.269,3.475.805,1.831,1.28,2.416,2.234c.581.954.875,2.028.875,3.227s-.291,2.273-.875,3.227c-.581.954-1.386,1.698-2.416,2.234-1.026.536-2.186.805-3.475.805s-2.449-.269-3.475-.805ZM68.003,9.508c.406-.245.727-.593.969-1.044.239-.451.36-.978.36-1.583s-.121-1.132-.36-1.583c-.239-.451-.563-.799-.969-1.044-.406-.245-.86-.369-1.362-.369s-.957.124-1.362.369-.727.593-.969,1.044c-.239.451-.36.978-.36,1.583s.121,1.132.36,1.583c.239.451.563.799.969,1.044s.86.369,1.362.369.957-.124,1.362-.369Z" fill="#878787"/>
      <path d="M75.107,12.693c-.76-.303-1.383-.745-1.874-1.326l2.174-2.57c.321.4.633.696.941.89.309.194.627.291.96.291.421,0,.745-.124.969-.375.224-.251.333-.624.333-1.114v-4.044c0-1.965,1.592-3.557,3.557-3.557h.433v7.362c0,1.632-.421,2.858-1.259,3.672-.839.817-2.071,1.223-3.69,1.223-.935.003-1.783-.148-2.543-.451Z" fill="#878787"/>
      <path d="M87.258,12.342c-1.026-.536-1.831-1.28-2.416-2.234-.581-.954-.875-2.028-.875-3.227s.291-2.273.875-3.227c.581-.954,1.386-1.698,2.416-2.234,1.026-.536,2.186-.805,3.475-.805s2.449.269,3.475.805,1.831,1.28,2.416,2.234c.581.954.875,2.028.875,3.227s-.291,2.273-.875,3.227c-.581.954-1.386,1.698-2.416,2.234-1.026.536-2.186.805-3.475.805s-2.449-.269-3.475-.805ZM92.096,9.508c.406-.245.727-.593.969-1.044.239-.451.36-.978.36-1.583s-.121-1.132-.36-1.583-.563-.799-.969-1.044c-.406-.245-.86-.369-1.362-.369s-.957.124-1.362.369-.727.593-.969,1.044c-.239.451-.36.978-.36,1.583s.121,1.132.36,1.583.563.799.969,1.044c.406.245.86.369,1.362.369s.957-.124,1.362-.369Z" fill="#878787"/>
    </g>
    <path d="M46.519,9.826v3.048h-9.965V4.162c0-1.81,1.468-3.275,3.275-3.275h6.466v3.048h-5.77v1.405h5.068v2.912h-5.068v1.574h5.994Z" fill="#878787"/>
  </g>
  <path d="M14.491,9.463c3.003-1.738,6.418-2.64,9.872-2.609,2.8.024,5.573.66,8.101,1.847-.033-.203-.073-.406-.118-.605,0-.012-.003-.027-.006-.039-.13-.611-.294-1.217-.493-1.816h.003c-.36-1.084-.832-2.152-1.429-3.179-.378-.657-.793-1.274-1.241-1.856l-3,3.315c-.009-.003-.021-.003-.03-.006l-2.809-4.514-2.507,4.692c-.012,0-.024.003-.033.006l-3.823-3.699-1.293,5.164c-.006.006-.012.009-.021.009l-4.613-2.658.003,5.325c-.006.006-.015.009-.021.018l-5.119-1.462,1.296,5.158c-.006.009-.012.018-.021.027l-5.316-.173,2.51,4.689c-.003.012-.009.018-.012.027l-4.368.944c.282.681.611,1.35.99,2.001.639,1.108,1.386,2.116,2.219,3.021.251.272.506.533.772.784.018.018.036.036.051.048.124.115.248.233.375.348.006.006.015.015.024.018.139.124.279.248.424.366.236-2.782,1.069-5.503,2.446-7.94,1.701-3.006,4.184-5.512,7.19-7.253" fill="#878787"/>
  <path d="M15.705,11.567c-5.446,3.151-8.491,8.858-8.491,14.727,5.086,2.927,11.549,3.136,16.998-.012,5.446-3.151,8.494-8.858,8.494-14.724-5.086-2.93-11.555-3.139-17.001.009ZM22.879,23.975c-2.083,1.205-4.45,1.831-6.838,1.81-1.968-.018-3.914-.466-5.688-1.308.154-1.959.739-3.869,1.704-5.582.16-.278.33-.554.506-.82.115.778.375,1.55.793,2.273,1.774,3.076,5.706,4.126,8.782,2.352,3.073-1.774,4.123-5.706,2.349-8.782-.418-.723-.957-1.335-1.574-1.825.318-.018.642-.03.966-.027,1.968.018,3.914.466,5.685,1.311-.157,1.953-.739,3.863-1.707,5.579-1.175,2.083-2.897,3.817-4.977,5.019Z" fill="#878787"/>
</svg>