<?xml version="1.0" encoding="UTF-8"?>
<svg id="Ds" xmlns="http://www.w3.org/2000/svg" version="1.1" viewBox="0 0 76.667 83.026">
  <!-- Generator: Adobe Illustrator 30.5.1, SVG Export Plug-In . SVG Version: 2.1.4 Build 3)  -->
  <path d="M57.423,52.821L1.796,64.395l6.708,4.648,15.255-3.29,8.157,6.475-9.039,6.581,6.448,4.217,32.964-25.252-4.866-4.953ZM37.433,68.215l-5.345-4.292,16.084-3.515-10.74,7.807Z" fill="#878787"/>
  <path d="M24.723,0L0,41.557s1.867,10.459,2.19,11.703c0,0,.527,3.169,1.817,5.275,1.124,1.831,4.298,2.906,7.4.323,0,0,10.596-8.475,16.078-26.527,0,0,4.308-12.851-2.762-32.331ZM13.608,47.399c-5.988,8.069-7.224.701-7.224.701-.135-.658-.906-5.666-.906-5.666L21.961,15.474c4.592,15.748-8.353,31.925-8.353,31.925Z" fill="#878787"/>
  <path d="M56.592,7.892l-3.466,4.734,5.479,10.214s-2.847-.357-5.26,2.542c0,0-5.308,6.781.988,19.811,0,0,5.179,12.113,12.517,12.216,0,0,3.92.253,5.488-5.28,0,0,.396-1.012.367-3.207l1.189,1.315,2.773-5.305L56.592,7.892ZM66.792,49.718c-2.136,1.12-4.926-1.726-8.16-8.496-2.582-5.407-2.321-10.628.114-11.775,2.856-1.346,5.791,2.211,8.174,8.132,2.226,5.529,2.023,11.014-.128,12.139Z" fill="#878787"/>
  <path d="M53.74,19.465l-7.363,3.812s-2.072,7.782-3.551,9.995c0,0-2.74-4.187-3.157-6.007,0,0,8.417-10.617,7.622-17.854,0,0,.191-4.929-4.596-3.842,0,0-4.691.667-9.644,8.424,0,0-5.569,7.886-1.492,15.376,0,0-6.589,9.719-7.388,17.772,0,0-.715,8.819,2.981,10.057,0,0,5.071,3.066,13.875-9.636l1.885,3.288,7.672-3.594s-4.034-7.596-4.515-8.11c0,0,6.728-13.102,7.67-19.681ZM37.091,15.372c2.144-3.753,4.036-3.206,4.036-3.206,1.286.494.284,3.059.284,3.059-.504,2.381-4.284,7.614-4.284,7.614-2.109-3.589-.035-7.468-.035-7.468ZM30.389,47.167c-2.358-3.889,3.669-12.536,3.669-12.536l3.901,7.453c-4.393,8.592-7.571,5.083-7.571,5.083Z" fill="#878787"/>
</svg>