<?xml version="1.0" encoding="UTF-8"?>
<svg id="Ds" xmlns="http://www.w3.org/2000/svg" version="1.1" viewBox="0 0 201.249 14.717">
  <!-- Generator: Adobe Illustrator 30.5.1, SVG Export Plug-In . SVG Version: 2.1.4 Build 3)  -->
  <g id="Layer_2">
    <g id="desktop-breakpoint">
      <g isolation="isolate">
        <path d="M0,11.484h.854c.219.025.416-.133.441-.352.003-.03.003-.06,0-.09V.239h3.201l3.942,6.101c.433.688.83,1.398,1.192,2.126h.042c-.09-.705-.144-1.415-.16-2.126V1.689c0-1.014.436-1.45,1.45-1.45h3.407v2.985h-.859c-.219-.022-.415.138-.436.357-.003.026-.003.053,0,.079v10.794h-3.182l-3.961-6.101c-.44-.686-.84-1.398-1.197-2.131h-.042c.09.707.143,1.418.16,2.131v4.637c0,1.018-.441,1.455-1.455,1.455H0v-2.961Z" fill="#878787"/>
        <path d="M14.985,3.224h-1.291V.239h8.954c1.014,0,1.45.436,1.45,1.45v2.75h-3.182v-.779c.022-.219-.138-.415-.357-.436-.026-.003-.053-.003-.079,0h-1.934v2.586h4.064v2.985h-4.064v2.248c-.025.219.133.416.352.441.03.003.06.003.09,0h1.971c.219.022.415-.138.437-.357.003-.028.003-.056,0-.084v-.774h3.182v2.745c0,1.018-.436,1.455-1.45,1.455h-6.702c-1.014,0-1.455-.436-1.455-1.455l.014-9.79Z" fill="#878787"/>
        <path d="M26.112,3.661c-.013-.259-.234-.458-.493-.444-.022.001-.044.004-.066.008h-.497V.239h2.548c.976,0,1.591.277,1.774,1.169l1.596,7.429c.097.49.148.988.155,1.488h.038c.031-.504.111-1.004.239-1.492L33.574.258h2.849l2.149,8.579c.125.487.206.985.239,1.488h.038c.014-.502.074-1.001.178-1.492l1.572-7.424c.178-.892.779-1.169,1.774-1.169h2.544v2.985h-.497c-.255-.047-.5.121-.547.376-.004.02-.006.04-.007.06l-2.708,10.794h-4.083l-1.788-6.612c-.148-.494-.241-1.002-.277-1.516h-.042c-.036.514-.129,1.022-.277,1.516l-1.793,6.626h-4.078l-2.708-10.808Z" fill="#878787"/>
        <path d="M48.741,8.236l-3.022-4.576c-.258-.399-.282-.436-.718-.436h-.577V.239h1.952c.873,0,1.352.141,1.83.939l1.45,2.45c.54.939.859,1.591.859,1.591h.038s.319-.676.854-1.591l1.436-2.45c.469-.812.939-.939,1.83-.939h1.948v2.985h-.577c-.436,0-.469.038-.713.436l-3.027,4.576v6.232h-3.562v-6.232Z" fill="#878787"/>
        <path d="M64.148,0c4.299,0,7.443,3.182,7.443,7.265,0,4.111-3.332,7.443-7.443,7.443s-7.443-3.332-7.443-7.443c0-4.083,3.144-7.265,7.443-7.265ZM64.148,11.423c2.07,0,3.754-1.793,3.754-4.158,0-2.271-1.671-3.98-3.754-3.98-2.109.034-3.792,1.772-3.757,3.882,0,.033.001.065.003.098.009,2.365,1.685,4.158,3.754,4.158Z" fill="#878787"/>
        <path d="M73.323,3.224h-1.295V.239h6.65c2.764,0,4.693,1.61,4.693,4.477s-2.088,3.703-2.088,3.703v.028c.377.186.684.486.878.859l.906,1.718c.193.346.581.533.971.469h.239v2.985h-1.948c-.995,0-1.553-.178-2.013-1.056l-1.671-3.205c-.239-.436-.535-.535-1.272-.535h-.469v4.787h-3.562l-.019-11.244ZM78.119,6.688c1.056,0,1.61-.619,1.61-1.75s-.554-1.713-1.549-1.713h-1.295v3.463h1.234Z" fill="#878787"/>
        <path d="M86.121,3.661c.022-.219-.138-.415-.357-.436-.026-.003-.053-.003-.079,0h-.859V.239h3.402c1.018,0,1.455.436,1.455,1.45v4.041h.469c.497,0,.854,0,1.093-.436l2.417-5.054h3.881l-2.844,5.749c-.209.515-.579.948-1.056,1.234v.042s.596.136,1.093,1.131l1.295,2.628c.197.418.577.469.971.469h.38v2.985h-2.088c-.995,0-1.572-.16-2.013-1.056l-2.126-4.257c-.239-.469-.657-.469-1.197-.469h-.277v5.772h-3.562V3.661Z" fill="#878787"/>
      </g>
      <g isolation="isolate">
        <path d="M100.162,2.131h-1.295V.418h7.739c.896,0,1.276.38,1.276,1.272v1.774h-1.821v-.896c.028-.213-.123-.409-.336-.436-.033-.004-.067-.004-.1,0h-3.482v4.613h4.796v1.704h-4.787v6.021h-1.99V2.131Z" fill="#878787"/>
        <path d="M110.37,2.131h-1.295V.418h8.25c.896,0,1.276.38,1.276,1.272v1.774h-1.811v-.896c.028-.213-.122-.409-.335-.437-.035-.005-.071-.004-.106,0h-3.998v4.397h4.928v1.708h-4.918v4.083c-.022.219.138.415.357.437.028.003.056.003.084,0h4.097c.219.022.415-.138.436-.357.003-.026.003-.053,0-.079v-.896h1.83v1.769c0,.896-.375,1.276-1.272,1.276h-6.251c-.892,0-1.272-.38-1.272-1.276V2.131Z" fill="#878787"/>
        <path d="M121.079,11.202s1.431,1.694,3.52,1.694c1.314,0,2.408-.798,2.408-2.088,0-2.947-6.786-2.492-6.786-6.866,0-2.112,1.854-3.754,4.501-3.754,1.492,0,3.998.676,3.998,2.586v1.145h-1.83v-.634c0-.737-1.056-1.272-2.168-1.272-1.516,0-2.469.835-2.469,1.877,0,2.844,6.767,2.206,6.767,6.824,0,2.149-1.675,4.003-4.458,4.003-1.778-.006-3.47-.767-4.655-2.093l1.173-1.422Z" fill="#878787"/>
        <path d="M134.769,2.131h-2.816c-.213-.028-.409.123-.436.336-.004.033-.004.067,0,.1v.896h-1.769v-1.849c0-.896.296-1.197,1.192-1.197h9.663c.896,0,1.192.3,1.192,1.197v1.849h-1.769v-.896c.028-.213-.123-.409-.336-.436-.033-.004-.067-.004-.1,0h-2.816v12.338h-1.995l-.009-12.338Z" fill="#878787"/>
        <path d="M142.93,12.756h1.375V2.131h-1.375V.418h4.637v1.713h-1.37v10.625h1.37v1.713h-4.637v-1.713Z" fill="#878787"/>
        <path d="M149.979,2.567c-.07-.296-.357-.487-.657-.436h-.282V.418h1.136c.995,0,1.333.221,1.652,1.154l3.083,8.654c.258.76.54,1.934.54,1.934h.038c.144-.654.325-1.299.54-1.934l3.065-8.654c.338-.939.657-1.154,1.652-1.154h1.112v1.713h-.277c-.357,0-.54.08-.657.436l-4.416,11.901h-2.107l-4.421-11.901Z" fill="#878787"/>
        <path d="M160.885,12.756h.277c.357,0,.54-.08.657-.436l4.397-11.901h2.088l4.397,11.901c.068.297.357.489.657.436h.282v1.713h-1.112c-.995,0-1.314-.239-1.633-1.154l-1.056-2.886h-5.162l-1.056,2.886c-.338.915-.657,1.154-1.652,1.154h-1.093l.009-1.713ZM169.361,8.757l-1.53-4.28c-.258-.737-.558-1.971-.558-1.971h-.038s-.282,1.234-.54,1.971l-1.53,4.28h4.196Z" fill="#878787"/>
        <path d="M175.133,2.567c.028-.213-.123-.409-.336-.436-.033-.004-.067-.004-.1,0h-.854V.418h2.009c.896,0,1.272.38,1.272,1.272v10.63c-.022.219.138.415.357.437.028.003.056.003.084,0h3.881c.219.022.415-.138.436-.357.003-.026.003-.053,0-.079v-.896h1.811v1.769c0,.896-.38,1.276-1.276,1.276h-6.007c-.896,0-1.276-.38-1.276-1.276V2.567Z" fill="#878787"/>
        <path d="M185.744,11.202s1.408,1.694,3.52,1.694c1.314,0,2.412-.798,2.412-2.088,0-2.947-6.791-2.492-6.791-6.866,0-2.112,1.877-3.754,4.501-3.754,1.492,0,3.998.676,3.998,2.586v1.145h-1.83v-.634c0-.737-1.056-1.272-2.168-1.272-1.511,0-2.469.835-2.469,1.877,0,2.844,6.767,2.206,6.767,6.824,0,2.149-1.671,4.003-4.458,4.003-1.778-.006-3.47-.767-4.655-2.093l1.173-1.422Z" fill="#878787"/>
      </g>
      <path d="M198.185.183c1.69-.003,3.062,1.365,3.065,3.055.003,1.69-1.365,3.062-3.055,3.065-1.69.003-3.062-1.365-3.065-3.055.003-1.688,1.367-3.057,3.055-3.065ZM198.185,5.786c1.405,0,2.544-1.139,2.544-2.544,0-1.405-1.139-2.544-2.544-2.544-1.405,0-2.544,1.139-2.544,2.544v.005c-.003,1.4,1.13,2.536,2.529,2.539.005,0,.009,0,.014,0ZM197.105,1.844c0-.091.074-.164.164-.164h1.244c.529-.047.996.344,1.043.874.002.022.003.043.004.065.028.439-.263.835-.69.939l.512,1.004c.039.076.009.169-.067.208-.024.012-.051.018-.078.017h-.291c-.067-.01-.124-.054-.15-.117l-.469-1.061h-.629v1.023c0,.088-.071.16-.16.16h-.221c-.089,0-.162-.071-.164-.16l-.047-2.788ZM198.513,3.116c.258.023.486-.167.51-.425.001-.015.002-.029.002-.044.001-.259-.208-.47-.467-.471-.015,0-.029,0-.044.002h-.831v.939h.831Z" fill="#878787"/>
    </g>
  </g>
</svg>