<?xml version="1.0" encoding="UTF-8"?>
<svg id="Ds" xmlns="http://www.w3.org/2000/svg" version="1.1" viewBox="0 0 100.667 43.506">
  <!-- Generator: Adobe Illustrator 30.5.1, SVG Export Plug-In . SVG Version: 2.1.4 Build 3)  -->
  <path d="M81.497,6.965c.343.477.03,1.999.418,1.954.373-.045,1.656-2.536,1.238-3.401-.433-.865-3.461-1.865-3.983-1.895-2.059-.119-2.655,1.522-2.894,2.834-.104.597-2.059,4.863-1.969,4.729l4.043-4.58c.686-.686,2.64-.343,3.148.358h0ZM61.775,41.008c-.149.373-.656-.224-.507-.641.045-.119.656-1.477,2.014-1.193.388.09-1.014.627-1.507,1.835ZM83.153,20.764c.925-.537,3.61-4.759,3.715-4.535.09.224.239,1.387-.045,2.208-.388,1.089-3.67,2.327-3.67,2.327h0ZM88.479,11.545c-.09-.209,2.372,4.431,1.88,6.474-.776,3.252-3.685,5.49-3.685,5.49,0,0,1.387-2.655,1.596-3.133s1.596-5.311.209-8.831ZM95.386,14.23c1.462,2.506-.552,5.356-.985,5.758-.358.343-1.089.731-1.581.985.88-.806,1.686-1.82,1.924-3.013.224-1.208-.149-2.417-.776-3.759-.119-.254-2.342-3.536-2.536-3.715.358.045,3.207,2.074,3.953,3.744h0ZM96.311,20.123c1.835-1.835,2.118-3.774,2.208-4.58.343,1.745-.641,4.237-1.447,5.385-.686.03-1.343.119-1.954.224.462-.254.761-.597,1.193-1.029ZM88.15,32.102c-2.7,3.461-7.25,3.312-10.353,4.565-3.625,1.447-6.101,4.013-6.743,4.654-1.119,1.104-2.521.82-3.282.776s-1.492-.433-1.805-.492-1.029.015-1.029.015c0,0,.03-.343.283-.522.269-.164.806-.224,1.76-.418s1.686-.701,2.059-.955c.388-.254.134-.328-.119-.269-.239.06-1.014.358-2.342.552-1.328.194-1.76.09-2.268.448-.522.343-.403,1.223-.522,1.462-.119.254-.209.313-.388.149-.164-.149-.239-.746-.119-1.238.134-.492.91-.895,1.641-1.059s2.282-.269,3.968-1.164c4.983-2.64,7.176-4.625,11.576-8.026,4.684-3.61,8.861-5.609,12.158-7.205,2.029-.985,8.041-1.716,8.041-1.716,0,0-.865-.582-1.76-.686-.537-.06-1.059-.075-1.566-.06.82-.448,2.909-2.059,3.222-4.132.403-2.775-3.282-5.072-3.327-7.593-.119-5.878-6.027-6.713-5.758-6.549,1.104.686,2.253,2.014,2.461,2.775.388,1.387-.791,2.894-2.506,3.476-.82.269-5.356,1.268-5.952,1.88-.612.612.641,3.819-.164,5.117-.806,1.298-5.311,3.521-5.848,4.147-.537.627-1.104.433-1.298.418-.194-.015-.03.224.522.343s1.507-.209,2.059-.507c.552-.313,1.328.343,1.298.776-.045.418-.567.537-1.581,1.179-.806.507-3.103-.925-3.297-1.402s.477-.313.895-.835c.418-.507-.313-.597-.567-.507-.269.075-.418-.06-.686-.134s-.612,0-.776.194,0,.343-.627.418-.343-.686-.209-1.507c.134-.82.656-2.999.552-3.267-.104-.283-.119-.179-.343-.448s-.239-.746-.269-1.522c-.015-.776.045-2.223.045-2.223,0,0-.477.701-.686,1.939s.656,1.924.671,2.118c.015.194-.03.641-.403,2.834-.388,2.193.09,2.611.567,2.999.477.388,2.611,1.492,2.611,1.492l-.045.985s-1.059.343-2.059,1c-1,.641-1.372,1.805-1.447,2.193-.075.388.134.328.134.328,0,0,.224-.239,1.014-.85.776-.612,2.491-.94,2.7-.955.209-.015.224.06-.045.254s-.97.701-2.476,1.82c-1.507,1.134-1.716,2.536-1.716,2.864,0,.313.209.06.209.06,0,0,.209-.477.731-.955.507-.477,1.671-.761,2.969-.97s1.507-.537,1.91-1.134c.403-.582,1.492-1.686,1.716-1.835.224-.134.283-.06.149.045s-.209.179-.895.91c-.686.746-.806,1.626-.806,1.626,0,0,.373-.522,1.223-1.104.835-.597,2.879-1.253,3.416-1.387.522-.134.492-.06.403.015s-.149.09-.746.403c-.582.298-2.67,1.537-5.4,3.565-2.79,2.074-5.072,4.46-7.325,6.131-2.238,1.656-3.923,2.402-4.804,2.551-.88.149-1.91-.358-3.207-.418-1.298-.06-2.163.82-2.297,1.014s-.134.358-.015.343.328-.254.522-.254.179.119.179.119c0,0-.09.045-.462.224-.358.194-.91.731-1.179,1.551-.269.806.358,2.029.358,2.029,0,0,.403,0,.955.239.552.224.91.373,1.179.537.269.149.537.194,1.089.045.552-.164,1.686-.164,2.461-.119.776.03,3.819.776,5.773-.492,6.101-5.356,12.486-4.893,14.784-5.714,4.699-1.716,3.923-8.071,12.203-7.101-.403-.955-6.877-3.043-10.95,2.148h0ZM70.174,18.959c.313.239.91,1.343.835,1.164-.075-.179.239-1.193-.433-2.447-.686-1.253-.895-1.716-1.193-2.969-.298-1.268-.835-2.297.06-3.073.91-.776,1.611-1.895,1.895-3.088.283-1.193,1.253-2.133,2.327-3.431s1.283-1.492,1.283-1.492c-.254.343-.761,1.73-.985,2.461-.239.731-1.402,2.327-1.939,3.178-.522.85-1.73,2.491-1.835,4.028-.09,1.537,1.164,3.357,1.358,4.028.179.671-.254,2.566.209,3.923.448,1.358,1.73,2.611,1.969,2.775.224.164.179,0,.104-.09s-.224-.224-.537-.88c-.313-.641-.164-1.372.045-2.357.224-.985.328-1.775.239-2.76s-.88-2.655-1.119-3.67c-.239-1.014.373-2.014,1.402-3.744,1.014-1.745,1.164-3.207,1.298-4.281.134-1.074.731-2.611,2.342-3.282.94-.388,3.55.149,4.908,1,.955.641,1.432,1.238,1.566,1.924.164.806-.328,1.358-.627,2.133-.298.791-.507,1.701-.164,1.656.298-.03,3.804-2.984,4.595-3.834.388-.433.91-1.522.164-2.491-.641-.85-5.206-1.223-6.087-2.447-.776-1.089-2.805-1.029-3.401-.627-.552.373-1.76,1.387-2.939,1.79-1.179.403-2.387.597-3.983,1.402-1.596.82-1.522,1.76-1.701,2.447-.179.686-.298,2.536-1.596,4.52-1.313,1.984-.552,3.342.09,5.356.627,1.969,1.537,2.939,1.85,3.178h0ZM78.812,17.945c-.03.224.194.015.373-.239.179-.269.895-1.447,2.059-3.446s1.85-3.715,1.79-3.759c-.075-.045-.239.119-.418.254-.194.134-.567.507-.88.91-.313.403-.582.358-.985.448-.403.09-1.134.88-1.551,1.223-.418.328-.985.671-1.507.746-.567.09-.656-.164-.895-.119-.239.045-.224.433-.149.716.09.269.015.403-.03.88-.045.492.298.955.582,1.238.283.269.194.701.388.85s.254-.835.254-1.447c0-.597-.134-1.193-.119-1.283.03-.09.507-.224.731-.373.239-.149.791-.552,1.059-.686.283-.134.283-.03.209.119-.075.164-.224.403-.522.656-.313.269-1.044.462-1.208.477s-.149.149.015.283c.164.119.567.119.925.03.358-.104.313.373.269.88s-.343,1.417-.388,1.641h0ZM86.688,1.49c2.73.88,3.327,3.237,2.387,4.311-.522.597-1.119.955-2.491,1.805-1.372.85-1.91,1.298-2.342,1.626-.433.343-.671.806.269.552.09-.03,5.863-1.268,6.609-1.656,1.253-.656,1.611-1.104,1.805-1.954.194-.85-1.104-2.253-1.716-2.939-1.223-1.417-4.162-2.879-4.296-2.894-1.477-.492-3.282-.09-4.759-.015-.164,0-.104.254-.015.313,1.328.91,2.939.477,4.55.85h0ZM1.865,35.488v-15.768h3.565v12.904h5.699v2.864H1.865ZM13.441,35.488v-15.768h3.55v15.768h-3.55ZM28.986,32.908c1.507,0,2.76-.507,3.744-1.507.985-1,1.477-2.253,1.477-3.759,0-1.492-.492-2.745-1.492-3.774-1-1.014-2.238-1.522-3.73-1.522-1.507,0-2.76.507-3.759,1.522s-1.492,2.268-1.492,3.774c0,1.522.492,2.775,1.462,3.774,1,1,2.253,1.492,3.789,1.492ZM37.877,27.642c0,1.134-.224,2.193-.671,3.192s-1.089,1.895-1.924,2.655c-.865.776-1.835,1.387-2.924,1.805s-2.208.627-3.371.627c-1.014,0-2.014-.164-2.984-.492s-1.865-.791-2.685-1.402c-1.044-.791-1.85-1.73-2.402-2.834-.552-1.104-.835-2.282-.835-3.55,0-1.134.224-2.193.656-3.192.448-1,1.089-1.88,1.939-2.655.835-.761,1.805-1.358,2.909-1.79,1.104-.418,2.238-.641,3.416-.641,1.164,0,2.297.209,3.386.641,1.104.418,2.074,1.014,2.909,1.79s1.492,1.656,1.924,2.655.656,2.059.656,3.192h0ZM40.875,35.488v-15.768h3.7l7.384,9.175c.209.254.448.627.701,1.089.254.477.522,1.029.791,1.671-.09-.462-.149-.925-.179-1.387-.045-.462-.06-1.029-.06-1.716v-8.817h3.401v15.768h-3.491l-7.578-9.354c-.209-.254-.448-.627-.701-1.089s-.522-1.029-.791-1.686c.09.448.149.91.179,1.372.045.462.06,1.044.06,1.745v9.01h-3.416v-.015Z" fill="#878787"/>
  <path d="M59.269,33.489l1.984-2.118c.254.582.656,1.044,1.208,1.372s1.179.507,1.865.507c.835,0,1.492-.194,1.984-.567s.731-.88.731-1.507c0-.746-.806-1.492-2.432-2.223-.522-.239-.94-.433-1.238-.582-1.462-.716-2.461-1.417-3.028-2.103s-.85-1.507-.85-2.447c0-1.298.552-2.372,1.641-3.207s2.506-1.253,4.237-1.253c1.014,0,1.88.164,2.611.507.731.328,1.387.85,1.939,1.566l-2.103,1.91c-.254-.462-.582-.806-1-1.029-.418-.224-.91-.343-1.492-.343-.701,0-1.268.164-1.716.507-.433.328-.641.761-.641,1.298,0,.835.865,1.596,2.581,2.282.343.134.597.239.791.328,1.417.612,2.461,1.298,3.133,2.074.686.761,1.014,1.641,1.014,2.626,0,1.477-.537,2.655-1.596,3.536s-2.506,1.313-4.296,1.313c-1.268,0-2.372-.209-3.282-.627-.925-.433-1.596-1.044-2.044-1.82h0ZM9.667,9.68c-.492-.418-1-.716-1.522-.91s-1.074-.283-1.671-.283c-1.208,0-2.178.343-2.909,1.029-.716.686-1.074,1.611-1.074,2.76,0,1.134.328,2.029,1,2.7s1.581,1,2.745,1c.656,0,1.268-.104,1.835-.313s1.089-.522,1.566-.94l-.015,2.357c-.522.283-1.059.507-1.626.641-.567.134-1.164.209-1.79.209-1.82,0-3.312-.537-4.475-1.596-1.149-1.059-1.73-2.417-1.73-4.058s.582-2.984,1.745-4.058c1.164-1.059,2.67-1.596,4.505-1.596.612,0,1.208.06,1.79.179s1.149.313,1.701.567l-.075,2.312ZM17.827,13.544l-1.268-3.476c-.03-.104-.09-.283-.134-.537-.06-.254-.119-.552-.179-.925-.06.343-.134.656-.194.94-.06.283-.104.462-.134.552l-1.223,3.431,3.133.015h0ZM10.577,17.647l4.326-10.771h2.79l4.401,10.771h-2.775l-.925-2.282h-4.401l-.791,2.282h-2.626ZM23.302,17.647V6.876h2.521l5.042,6.266c.149.179.298.433.477.746.179.328.358.701.537,1.134-.06-.313-.104-.641-.119-.955-.03-.313-.045-.701-.045-1.179v-6.012h2.327v10.771h-2.387l-5.177-6.385c-.149-.179-.298-.433-.477-.746-.179-.328-.358-.701-.552-1.149.06.313.104.627.119.94.03.313.045.716.045,1.193v6.146h-2.312ZM36.594,17.647V6.876h2.536l5.042,6.266c.149.179.298.433.477.746.179.328.358.701.537,1.134-.06-.313-.104-.641-.119-.955-.03-.313-.045-.701-.045-1.179v-6.012h2.327v10.771h-2.387l-5.177-6.385c-.149-.179-.298-.433-.477-.746-.164-.328-.358-.701-.537-1.149.06.313.104.627.119.94.03.313.045.716.045,1.193v6.146h-2.342,0ZM49.871,17.647V6.876h6.713v1.939h-4.267v2.223h4.267v1.954h-4.267v2.7h4.267v1.954h-6.713ZM58.24,16.274l1.358-1.447c.164.403.448.716.82.94s.806.343,1.283.343c.567,0,1.014-.134,1.358-.388.328-.254.492-.597.492-1.029,0-.507-.552-1.014-1.656-1.522-.358-.164-.641-.298-.85-.403-1-.492-1.686-.97-2.074-1.432s-.582-1.029-.582-1.671c0-.895.373-1.611,1.119-2.193.746-.567,1.716-.85,2.894-.85.686,0,1.283.119,1.79.343.492.224.94.582,1.328,1.074l-1.447,1.298c-.164-.313-.403-.552-.686-.701s-.627-.239-1.029-.239c-.477,0-.865.119-1.164.343s-.448.522-.448.88c0,.567.582,1.089,1.76,1.566.239.09.418.164.537.224.97.418,1.686.895,2.148,1.417s.701,1.119.701,1.79c0,1.014-.358,1.82-1.089,2.417s-1.701.895-2.939.895c-.865,0-1.626-.149-2.238-.433-.612-.269-1.074-.686-1.387-1.223h0Z" fill="#878787"/>
</svg>