<?xml version="1.0" encoding="UTF-8"?>
<svg id="Ds" xmlns="http://www.w3.org/2000/svg" version="1.1" viewBox="0 0 76.667 56.952">
  <!-- Generator: Adobe Illustrator 30.5.1, SVG Export Plug-In . SVG Version: 2.1.4 Build 3)  -->
  <path d="M19.376,32.086c0,.941.754,1.696,1.696,1.696h1.154c.942,0,1.672-.731,1.672-1.696v-6.972c0-.966-.73-1.696-1.672-1.696h-1.154c-.942,0-1.696.754-1.696,1.696v6.972" fill="#878787"/>
  <path d="M62.716,0h-19.708c-.368,0-.88.212-1.14.472l-20.473,20.473h.832c2.638,0,4.381,1.672,4.381,4.169v6.972c0,2.496-1.743,4.169-4.381,4.169h-1.154c-2.662,0-4.381-1.673-4.381-4.169v-6.437l-9.788,9.788c-.26.26-.472.773-.472,1.14v19.709c0,.367.3.667.668.667h19.708c.367,0,.88-.213,1.139-.472l20.46-20.461h-5.952c-.164,0-.234-.07-.234-.235v-14.368c0-.165.071-.235.234-.235h8.315c.141,0,.235.071.235.235v2.002c0,.165-.07.236-.235.236h-5.606c-.165,0-.236.071-.236.236v3.133c0,.165.071.235.236.235h4.593c.165,0,.236.071.236.236v2.002c0,.164-.071.235-.236.235h-4.593c-.165,0-.236.071-.236.236v3.344c0,.165.071.236.236.236h5.606c.035,0,.067.004.096.014l12.044-12.045c.26-.26.472-.772.472-1.139V.667c0-.367-.3-.667-.667-.667ZM39.041,35.784c0,.165-.071.235-.236.235h-1.955l-.212-.117-4.828-9.469.118,9.351c0,.165-.071.235-.235.235h-2.19c-.165,0-.236-.07-.236-.235v-14.368c0-.165.071-.235.236-.235h1.978l.212.118,4.805,9.562-.095-9.445c0-.165.071-.235.235-.235h2.167c.141,0,.236.071.236.235v14.368" fill="#878787"/>
  <g>
    <g>
      <path d="M3.576,21.981h-1.077c-.069,0-.099.03-.099.099v4.989c0,.069-.03.099-.099.099h-.929c-.069,0-.099-.03-.099-.099v-4.989c0-.069-.03-.099-.099-.099H.099c-.069,0-.099-.03-.099-.099v-.84c0-.069.03-.099.099-.099h3.477c.059,0,.099.03.099.099v.84c0,.069-.03.099-.099.099Z" fill="#878787"/>
      <path d="M8.684,27.167h-.929c-.069,0-.099-.03-.099-.099v-2.44c0-.069-.03-.099-.099-.099h-1.838c-.069,0-.099.03-.099.099v2.44c0,.069-.03.099-.099.099h-.939c-.069,0-.099-.03-.099-.099v-6.026c0-.069.03-.099.099-.099h.939c.059,0,.099.03.099.099v2.351c0,.069.03.099.099.099h1.838c.069,0,.099-.03.099-.099v-2.351c0-.069.03-.099.099-.099h.929c.069,0,.099.03.099.099v6.026c0,.069-.03.099-.099.099Z" fill="#878787"/>
      <path d="M13.455,27.167h-3.487c-.069,0-.099-.03-.099-.099v-6.026c0-.069.03-.099.099-.099h3.487c.059,0,.099.03.099.099v.84c0,.069-.03.099-.099.099h-2.351c-.069,0-.099.03-.099.099v1.314c0,.069.03.099.099.099h1.926c.069,0,.099.03.099.099v.84c0,.069-.03.099-.099.099h-1.926c-.069,0-.099.03-.099.099v1.403c0,.069.03.099.099.099h2.351c.059,0,.099.03.099.099v.84c0,.069-.03.099-.099.099Z" fill="#878787"/>
    </g>
    <g>
      <path d="M56.82,31.415c0,.464.454.603,1.146.919,1.057.484,1.551,1.028,1.551,2.006,0,1.047-.721,1.748-1.838,1.748h-.395c-.563,0-.988-.158-1.284-.464-.326-.336-.455-.622-.455-.721,0-.02.02-.049.059-.069l.859-.425c.02-.01.03-.01.049-.01.069,0,.089.099.188.296.109.207.356.356.583.356h.395c.385,0,.711-.316.711-.711,0-.494-.415-.672-1.057-.978-1.087-.524-1.64-.968-1.64-1.946,0-1.047.731-1.749,1.838-1.749h.148c.455,0,.81.099,1.126.326.385.277.632.721.632.84,0,.04-.02.059-.059.079l-.859.425c-.02.01-.04.01-.049.01-.049,0-.069-.059-.129-.148-.188-.316-.355-.494-.662-.494h-.148c-.385,0-.711.306-.711.711Z" fill="#878787"/>
      <path d="M64.466,35.989h-.929c-.069,0-.099-.03-.099-.099v-2.44c0-.069-.03-.099-.099-.099h-1.838c-.069,0-.099.03-.099.099v2.44c0,.069-.03.099-.099.099h-.939c-.069,0-.099-.03-.099-.099v-6.026c0-.069.03-.099.099-.099h.939c.059,0,.099.03.099.099v2.351c0,.069.03.099.099.099h1.838c.069,0,.099-.03.099-.099v-2.351c0-.069.03-.099.099-.099h.929c.069,0,.099.03.099.099v6.026c0,.069-.03.099-.099.099Z" fill="#878787"/>
      <path d="M67.835,36.088h-.484c-1.116,0-1.838-.701-1.838-1.748v-2.924c0-1.047.731-1.749,1.838-1.749h.484c1.106,0,1.838.701,1.838,1.749v2.924c0,1.047-.731,1.748-1.838,1.748ZM68.536,31.415c0-.405-.306-.711-.701-.711h-.484c-.395,0-.711.316-.711.711v2.924c0,.395.316.711.711.711h.484c.395,0,.701-.306.701-.711v-2.924Z" fill="#878787"/>
      <path d="M75.353,35.91c-.01.049-.049.079-.099.079h-.721c-.059,0-.089-.02-.099-.069l-.998-3.912-.988,3.912c-.01.049-.04.069-.099.069h-.721c-.049,0-.089-.03-.099-.079l-1.304-6.026c0-.01-.01-.03-.01-.039,0-.049.04-.079.109-.079h1.008c.049,0,.089.03.099.079l.721,4.021.938-4.05c.01-.049.04-.069.099-.069h.494c.059,0,.089.02.099.069l.938,4.05.731-4.021c.01-.049.049-.079.099-.079h1.008c.069,0,.109.03.109.079,0,.01-.01.03-.01.039l-1.304,6.026Z" fill="#878787"/>
    </g>
  </g>
</svg>