<?xml version="1.0" encoding="UTF-8"?>
<svg id="Ds" xmlns="http://www.w3.org/2000/svg" version="1.1" viewBox="0 0 122.965 31.74">
  <!-- Generator: Adobe Illustrator 30.5.1, SVG Export Plug-In . SVG Version: 2.1.4 Build 3)  -->
  <path d="M78.831.175h-5.083v18.233h5.083V.175ZM68.193,17.24h-19.331V.175h-5.082v18.233h24.413v-1.168ZM36.217,11.463l-5.067-.086c-1.224,3.803-6.037,6.073-12.878,6.073-8.383,0-13.189-2.968-13.189-8.142C5.083,3.716,11.919,1.169,18.272,1.169c5.374,0,11.44,1.915,12.879,6.192l5.065-.09C34.709,2.786,27.834,0,18.272,0,7.174,0,0,3.654,0,9.308c0,7.695,9.937,9.31,18.272,9.31,4.704,0,15.868-.697,17.945-7.155M104.691,1.168c-6.354,0-13.19,2.547-13.19,8.141,0,5.173,4.808,8.14,13.19,8.14,8.015,0,13.191-3.195,13.191-8.14,0-5.594-6.836-8.141-13.191-8.141M104.691,18.617c-8.336,0-18.273-1.615-18.273-9.308,0-5.655,7.171-9.309,18.273-9.309s18.274,3.654,18.274,9.309c0,8.402-12.78,9.308-18.274,9.308" fill="#878787"/>
  <path d="M115.848,25.924c-.328-.624-.909-.986-1.599-.986-.919,0-1.731.632-1.731,1.619,0,.912.622,1.292,1.345,1.629l.378.169c.574.27,1.14.523,1.14,1.266,0,.718-.607,1.241-1.272,1.241s-1.148-.532-1.238-1.182l-.672.194c.197.987.934,1.645,1.927,1.645,1.075,0,1.943-.851,1.943-1.965,0-1.013-.68-1.426-1.483-1.789l-.411-.185c-.418-.194-.968-.448-.968-.997,0-.582.475-.987,1.025-.987.526,0,.821.254,1.066.692l.55-.363ZM92.024,30.752v-5.047h.5c.731,0,1.354.101,1.921.616.533.481.804,1.182.804,1.908,0,.709-.262,1.375-.772,1.865-.566.549-1.198.659-1.953.659h-.5ZM91.335,31.41h1.148c.968,0,1.707-.126,2.446-.801.68-.624,1.007-1.443,1.007-2.371,0-.945-.319-1.798-1.024-2.423-.731-.64-1.485-.767-2.413-.767h-1.163v6.362ZM71.98,28.616h.172l1.871,2.793h.845l-1.969-2.852c.952-.084,1.551-.775,1.551-1.755,0-1.435-1.091-1.755-2.264-1.755h-.893v6.362h.688v-2.793ZM71.98,25.705h.205c.829,0,1.576.101,1.576,1.148,0,.987-.788,1.14-1.569,1.14h-.213v-2.288ZM53.258,28.947h-2.092l1.058-2.548,1.034,2.548ZM53.529,29.604l.73,1.806h.762l-2.78-6.665-2.854,6.665h.755l.746-1.806h2.641ZM26.463,25.048h-.746l2.37,6.692,2.001-5.122,2.001,5.122,2.37-6.692h-.746l-1.625,4.767-2.001-5.096-2.001,5.096-1.624-4.767ZM9.018,28.947h-2.092l1.058-2.548,1.033,2.548ZM9.289,29.604l.73,1.806h.762l-2.78-6.665-2.854,6.665h.754l.746-1.806h2.64Z" fill="#878787"/>
</svg>