<?xml version="1.0" encoding="UTF-8"?>
<svg id="Capa_1" xmlns="http://www.w3.org/2000/svg" version="1.1" viewBox="0 0 1080 1080">
  <!-- Generator: Adobe Illustrator 30.5.1, SVG Export Plug-In . SVG Version: 2.1.4 Build 3)  -->
  <path d="M668.343,253.472h175.759l-147.963,573.056h-44.145c-64.58,0-131.614-52.319-147.966-117.719l-18.802-72.755-49.866,190.474h-44.145c-65.397,0-131.614-52.319-147.963-117.719L125.533,253.472h162.681l134.065,520.737,49.052-191.294-85.019-329.443h162.678l134.068,520.737,59.676-231.351-74.391-289.385Z"/>
  <path d="M954.467,540.407c0,30.25-24.529,54.773-54.773,54.773-31.069,0-55.592-24.523-55.592-54.773,0-31.063,24.523-55.586,55.592-55.586,30.244,0,54.773,24.523,54.773,55.586Z"/>
</svg>